# xmcd
# 
# Track frame offsets:
#     150
#     10004
#     21008
#     34970
#     54145
#     64833
#     82892
#     99668
#     112285
#     127826
#     144557
#     167094
#     180394
#     195132
#     207815
#     221642
#     234231
#     249647
#     263443
#     284430
# 
# Disc length: 4051
# 
# Revision: 1
# Processed by: cddbd v1.5.2PL0 Copyright (c) Steve Scherf et al.
# Submitted via: fre:ac v1.0.17
# 
DISCID=080fd114
DTITLE=Various Artist - Got The Blues
DYEAR=2018
DGENRE=Blues
TTITLE0=James Brown And The Famous Flames - Messing With The Blues
TTITLE1=Jimmy Reed - Take Out Some Insurance
TTITLE2=Bo Diddley - Before You Accuse Me
TTITLE3=Ray Charles - I Can't Stop Loving You
TTITLE4=Fats Domino - Blueberry Hill
TTITLE5=Lee Hazlewood - If It's Monday Morning
TTITLE6=John Hammond - I've Got Love If You Want It
TTITLE7=Bukka White - Fixin To Die Blues
TTITLE8=Robert Lockwood Jr - Little Boy Blue
TTITLE9=Eric Bibb - With My Maker I Am One
TTITLE10=Scrapper Blackwell - Nobody Knows You When You're Down And Out
TTITLE11=Mississippi John Hurt - Candy Man Blues
TTITLE12=Eddie Boyd - Third Degree
TTITLE13=Jimmy Rogers - Walking By Myself
TTITLE14=Slimp Harpo - I'm A King Bee
TTITLE15=Big Joe Williams - Baby Please Don't Go
TTITLE16=Otis Spann - Someday
TTITLE17=Sonny Terry - Better Day
TTITLE18=Dinah Washington - Backwater Blues
TTITLE19=Lightnin Hopkins - Mojo Hand
EXTD=
EXTT0=
EXTT1=
EXTT2=
EXTT3=
EXTT4=
EXTT5=
EXTT6=
EXTT7=
EXTT8=
EXTT9=
EXTT10=
EXTT11=
EXTT12=
EXTT13=
EXTT14=
EXTT15=
EXTT16=
EXTT17=
EXTT18=
EXTT19=
PLAYORDER=
